# xmcd
# 
# Track frame offsets:
#     150
#     12275
#     26190
#     41070
#     68202
#     83287
#     97827
#     122305
#     136935
#     153785
#     170022
#     193005
# 
# Disc length: 2666
# 
# Revision: 1
# Processed by: cddbd v1.5.2PL0 Copyright (c) Steve Scherf et al.
# Submitted via: fre:ac v1.0.27
# 
DISCID=8b0a680c
DTITLE=Hugo Duarte - Another Day In Paradise
DYEAR=2002
DGENRE=Trop Rock
TTITLE0=Back To The Islands
TTITLE1=Danged Old Truck
TTITLE2=Cutie
TTITLE3=Another Day In Paradise
TTITLE4=You Are The One I Love
TTITLE5=Key West Heart
TTITLE6=Ring The Bells
TTITLE7=Hillbilly Beach
TTITLE8=Paradise Tonight
TTITLE9=Modern Day Buccaneers
TTITLE10=Somewhere Headed South
TTITLE11=Somewhere Headed South (Reprise
EXTD=
EXTT0=
EXTT1=
EXTT2=
EXTT3=
EXTT4=
EXTT5=
EXTT6=
EXTT7=
EXTT8=
EXTT9=
EXTT10=
EXTT11=
PLAYORDER=
